:FULLY-SPECIFIED
:FORCE-ALL-JOINTS-BE-3DOF
:DEGREES
136
root 7.67291 16.7098 -26.195 -9.633 16.8746 -0.11276
lfemur -4.78861 12.9862 -17.6589
ltibia 27.6542 -0 0
lfoot -10.358 -8.91434 0.359761
ltoes 35.3487 -0 0
rfemur -62.8345 -14.9796 3.61486
rtibia 57.4839 -0 0
rfoot 13.6818 5.73353 -1.1302
rtoes 0.300306 -0 0
lowerback 14.5022 -3.65517 -3.33496
upperback 4.63834 -5.21953 0.974174
thorax -3.01751 -2.60552 3.40497
lowerneck -11.7605 -3.11165 0.0878205
upperneck 1.93904 -4.25936 1.90536
head 2.74079 -2.04243 0.343262
lclavicle -5.34083e-14 5.0053e-15 2.75836e-30
lhumerus -40.2099 -21.3879 96.5177
lradius 49.688 -0 0
lwrist 12.1924 0 0
lhand 16.2342 11.3038 0.515724
lfingers 7.12502 -0 0
lthumb 40.8779 35.1622 0.0313797
rclavicle -5.34083e-14 5.0053e-15 2.75836e-30
rhumerus -45.133 -7.51448 -55.5855
rradius 72.6404 -0 0
rwrist -3.40084 0 0
rhand 1.53537 -16.2477 0.0612023
rfingers 7.12502 -0 0
rthumb 27.0466 -44.1558 0.0984262
137
root 7.62149 16.6758 -26.1653 -9.52111 17.4685 -0.101741
lfemur -4.95847 13.5421 -17.6608
ltibia 27.7485 -0 0
lfoot -10.1489 -8.48576 0.385014
ltoes 35.4113 -0 0
rfemur -62.377 -15.0741 3.209
rtibia 58.3013 -0 0
rfoot 14.06 5.09586 -1.17774
rtoes 1.61663 -0 0
lowerback 14.3778 -3.81105 -3.3968
upperback 4.5834 -5.43134 0.90652
thorax -3.00709 -2.71193 3.36874
lowerneck -11.7263 -3.21143 -0.0109767
upperneck 2.01936 -4.38578 2.00751
head 2.7705 -2.10162 0.385674
lclavicle -5.14537e-14 4.61981e-15 2.97846e-30
lhumerus -40.2858 -22.0811 96.965
lradius 49.7948 -0 0
lwrist 12.2391 0 0
lhand 17.1107 11.7339 0.542284
lfingers 7.12502 -0 0
lthumb 41.6895 35.2503 0.0305824
rclavicle -5.14537e-14 4.61981e-15 2.97846e-30
rhumerus -45.4788 -7.94151 -55.744
rradius 73.5146 -0 0
rwrist -3.90893 0 0
rhand 1.13279 -16.3077 0.0730983
rfingers 7.12502 -0 0
rthumb 26.6594 -44.2489 0.116047
138
root 7.56806 16.6409 -26.1357 -9.38962 18.0716 -0.09158
lfemur -5.15989 14.1134 -17.6606
ltibia 27.8604 -0 0
lfoot -9.93923 -8.03283 0.408434
ltoes 35.4646 -0 0
rfemur -61.867 -15.1528 2.79972
rtibia 59.123 -0 0
rfoot 14.4193 4.42093 -1.21539
rtoes 2.96948 -0 0
lowerback 14.2357 -3.9675 -3.4545
upperback 4.52194 -5.64266 0.836866
thorax -2.99377 -2.81818 3.32772
lowerneck -11.6897 -3.31474 -0.110738
upperneck 2.09668 -4.51705 2.11256
head 2.79912 -2.16315 0.429035
lclavicle -4.94002e-14 4.2267e-15 3.18792e-30
lhumerus -40.3723 -22.787 97.4271
lradius 49.9013 -0 0
lwrist 12.285 0 0
lhand 17.9959 12.172 0.564311
lfingers 7.12502 -0 0
lthumb 42.5086 35.3388 0.0290712
rclavicle -4.94002e-14 4.2267e-15 3.18792e-30
rhumerus -45.8264 -8.37729 -55.9318
rradius 74.3964 -0 0
rwrist -4.42584 0 0
rhand 0.697731 -16.3736 0.0856823
rfingers 7.12502 -0 0
rthumb 26.241 -44.3504 0.134579
139
root 7.51298 16.6055 -26.1063 -9.23809 18.6826 -0.0820279
lfemur -5.39357 14.6993 -17.6587
ltibia 27.9904 -0 0
lfoot -9.7296 -7.5559 0.429813
ltoes 35.5082 -0 0
rfemur -61.3041 -15.2145 2.38821
rtibia 59.9469 -0 0
rfoot 14.7582 3.70934 -1.24284
rtoes 4.35651 -0 0
lowerback 14.0755 -4.12412 -3.50767
upperback 4.45386 -5.85292 0.765358
thorax -2.97746 -2.92398 3.28182
lowerneck -11.6508 -3.42144 -0.211234
upperneck 2.17066 -4.653 2.22034
head 2.82651 -2.22693 0.473265
lclavicle -4.72498e-14 3.82676e-15 3.38488e-30
lhumerus -40.4697 -23.5041 97.9034
lradius 50.0073 -0 0
lwrist 12.3302 0 0
lhand 18.8877 12.6171 0.581564
lfingers 7.12502 -0 0
lthumb 43.3331 35.4274 0.0268491
rclavicle -4.72498e-14 3.82676e-15 3.38488e-30
rhumerus -46.1748 -8.8212 -56.1496
rradius 75.2835 -0 0
rwrist -4.95048 0 0
rhand 0.230187 -16.4453 0.0988393
rfingers 7.12502 -0 0
rthumb 25.7913 -44.4606 0.153851
140
root 7.45664 16.5697 -26.0771 -9.06605 19.3001 -0.0728226
lfemur -5.66025 15.2987 -17.6556
ltibia 28.1387 -0 0
lfoot -9.52058 -7.05533 0.448955
ltoes 35.5415 -0 0
rfemur -60.6881 -15.2578 1.97575
rtibia 60.771 -0 0
rfoot 15.0746 2.96168 -1.25985
rtoes 5.77536 -0 0
lowerback 13.897 -4.28049 -3.55594
upperback 4.37908 -6.06153 0.692137
thorax -2.95808 -3.02903 3.23097
lowerneck -11.6097 -3.53136 -0.312233
upperneck 2.24097 -4.79342 2.33069
head 2.85257 -2.29287 0.51828
lclavicle -4.50044e-14 3.42079e-15 3.56752e-30
lhumerus -40.5786 -24.2307 98.3937
lradius 50.1126 -0 0
lwrist 12.3744 0 0
lhand 19.784 13.0681 0.593861
lfingers 7.12502 -0 0
lthumb 44.1612 35.516 0.0239316
rclavicle -4.50044e-14 3.42079e-15 3.56752e-30
rhumerus -46.5226 -9.2726 -56.398
rradius 76.1738 -0 0
rwrist -5.48177 0 0
rhand -0.269854 -16.523 0.112444
rfingers 7.12502 -0 0
rthumb 25.3103 -44.5793 0.173681
141
root 7.3994 16.5338 -26.0484 -8.87303 19.9229 -0.0636901
lfemur -5.9607 15.9106 -17.6517
ltibia 28.3058 -0 0
lfoot -9.31274 -6.53147 0.465677
ltoes 35.5641 -0 0
rfemur -60.0187 -15.2816 1.56365
rtibia 61.5931 -0 0
rfoot 15.3668 2.17854 -1.26631
rtoes 7.22368 -0 0
lowerback 13.6998 -4.43619 -3.59894
upperback 4.29754 -6.26791 0.617347
thorax -2.93555 -3.13303 3.1751
lowerneck -11.5662 -3.64435 -0.413507
upperneck 2.30726 -4.93813 2.44344
head 2.87715 -2.3609 0.564001
lclavicle -4.2666e-14 3.00958e-15 3.73408e-30
lhumerus -40.6994 -24.9653 98.8974
lradius 50.2167 -0 0
lwrist 12.4174 0 0
lhand 20.6827 13.5243 0.601081
lfingers 7.12502 -0 0
lthumb 44.9907 35.6043 0.0203469
rclavicle -4.2666e-14 3.00958e-15 3.73408e-30
rhumerus -46.8686 -9.73086 -56.6778
rradius 77.0652 -0 0
rwrist -6.01861 0 0
rhand -0.802404 -16.6066 0.126359
rfingers 7.12502 -0 0
rthumb 24.798 -44.7068 0.19387
142
root 7.34166 16.4978 -26.0202 -8.65853 20.5496 -0.054346
lfemur -6.2957 16.5341 -17.6476
ltibia 28.4919 -0 0
lfoot -9.10666 -5.98467 0.47981
ltoes 35.5754 -0 0
rfemur -59.2957 -15.2846 1.15334
rtibia 62.4111 -0 0
rfoot 15.6328 1.3605 -1.26219
rtoes 8.69909 -0 0
lowerback 13.4838 -4.59082 -3.6363
upperback 4.20913 -6.47147 0.541127
thorax -2.90979 -3.23566 3.11414
lowerneck -11.5204 -3.76025 -0.514824
upperneck 2.36921 -5.08693 2.55842
head 2.90015 -2.43092 0.610345
lclavicle -4.02366e-14 2.59392e-15 3.88286e-30
lhumerus -40.8324 -25.7063 99.4143
lradius 50.3194 -0 0
lwrist 12.4592 0 0
lhand 21.5815 13.9844 0.603167
lfingers 7.12502 -0 0
lthumb 45.8199 35.692 0.0161359
rclavicle -4.02366e-14 2.59392e-15 3.88286e-30
rhumerus -47.2116 -10.1953 -56.9897
rradius 77.9554 -0 0
rwrist -6.5599 0 0
rhand -1.36748 -16.6963 0.140438
rfingers 7.12502 -0 0
rthumb 24.2545 -44.843 0.214204
